#!OML:ASF H:\Pregnant\Project 1\Capture day 1\Session 1\femalepreg.ASF
:FULLY-SPECIFIED
:DEGREES
162
root 9.14326 14.4886 28.1753 208.366 -85.5822 -191.073
lowerback -15.5163 -1.25412 -3.66127
upperback -5.1674 -1.3906 0.0942624
thorax 3.28685 -0.79843 1.91153
lowerneck -22.8017 5.66021 6.47707
upperneck 25.6214 4.78821 2.00016
head 12.4208 2.96496 0.497266
rclavicle -6.20659e-015 9.74045e-015
rhumerus -50.2228 -15.4412 -69.5882
rradius 24.4907
rwrist -19.1976
rhand -10.7948 -30.9266
rfingers 7.12502
rthumb 15.2181 -60.3469
lclavicle -6.20659e-015 9.74045e-015
lhumerus -47.6051 0.47608 78.5129
lradius 32.3116
lwrist 34.6165
lhand -31.9846 2.07106
lfingers 7.12502
lthumb -5.2339 31.9864
rfemur -23.2317 20.9874 -10.8148
rtibia 24.6234
rfoot -15.5048 -25.4708
rtoes -28.8865
lfemur -7.65615 -4.56625 0.982562
ltibia -1.59028e-015
lfoot -7.01279 14.6028
ltoes -22.1921
163
root 9.14148 14.4863 28.1743 205.135 -85.5152 -188.026
lowerback -15.4329 -1.21341 -3.50439
upperback -5.07993 -1.35779 0.154388
thorax 3.33181 -0.781123 1.89259
lowerneck -22.7335 5.67329 6.50184
upperneck 25.5403 4.81984 1.95696
head 12.3777 2.97501 0.478939
rclavicle -7.16712e-015 9.14409e-015
rhumerus -50.1391 -15.4397 -69.4696
rradius 24.4675
rwrist -19.3061
rhand -11.2697 -30.3691
rfingers 7.12502
rthumb 14.7607 -59.8235
lclavicle -7.16712e-015 9.14409e-015
lhumerus -47.5344 -1.01674 79.1108
lradius 32.436
lwrist 35.7337
lhand -30.6187 2.23841
lfingers 7.12502
lthumb -3.91494 32.1822
rfemur -23.0828 20.8905 -10.494
rtibia 24.5073
rfoot -15.2838 -25.1784
rtoes -29.1301
lfemur -7.36544 -4.47245 1.17616
ltibia -2.70347e-014
lfoot -7.03607 14.6099
ltoes -22.222
164
root 9.1401 14.4836 28.172 202.289 -85.4248 -185.365
lowerback -15.3474 -1.17318 -3.3791
upperback -4.99395 -1.3205 0.197968
thorax 3.3739 -0.761553 1.8749
lowerneck -22.6604 5.68394 6.54237
upperneck 25.4652 4.83538 1.93391
head 12.336 2.98209 0.462868
rclavicle -3.72605e-014 -1.19271e-014
rhumerus -50.0428 -15.4368 -69.3429
rradius 24.3884
rwrist -18.8598
rhand -11.4995 -29.6952
rfingers 7.12502
rthumb 14.5393 -59.1657
lclavicle -3.72605e-014 -1.19271e-014
lhumerus -47.5064 -2.6095 79.7345
lradius 32.6346
lwrist 36.9666
lhand -29.1304 2.59993
lfingers 7.12502
lthumb -2.47761 32.5653
rfemur -22.9564 20.8006 -10.2001
rtibia 24.4316
rfoot -15.0935 -24.887
rtoes -29.3699
lfemur -7.07355 -4.37893 1.3466
ltibia 5.40694e-014
lfoot -7.05699 14.6188
ltoes -22.2641
165
root 9.13904 14.4809 28.1686 199.984 -85.3088 -183.241
lowerback -15.269 -1.13698 -3.29971
upperback -4.91254 -1.28119 0.22269
thorax 3.41509 -0.74111 1.86359
lowerneck -22.5811 5.69478 6.60824
upperneck 25.3967 4.8366 1.92623
head 12.2963 2.98719 0.445998
rclavicle 2.92419e-014 3.77691e-015
rhumerus -49.9206 -15.3859 -69.2566
rradius 24.279
rwrist -18.0683
rhand -11.5866 -28.9936
rfingers 7.12502
rthumb 14.4553 -58.4702
lclavicle 2.92419e-014 3.77691e-015
lhumerus -47.4819 -4.14874 80.2867
lradius 32.8261
lwrist 38.1131
lhand -27.5057 3.12963
lfingers 7.12502
lthumb -0.908547 33.1074
rfemur -22.8693 20.7101 -9.95163
rtibia 24.4087
rfoot -14.9414 -24.5905
rtoes -29.5904
lfemur -6.7872 -4.28092 1.4799
ltibia 4.77083e-015
lfoot -7.07854 14.6281
ltoes -22.3112
166
root 9.13827 14.4782 28.1642 198.384 -85.1676 -181.808
lowerback -15.2034 -1.10628 -3.2802
upperback -4.8401 -1.23996 0.226601
thorax 3.45397 -0.719941 1.86446
lowerneck -22.4978 5.70444 6.68564
upperneck 25.3389 4.824 1.94216
head 12.2597 2.99031 0.433868
rclavicle -7.68738e-017 -3.57812e-015
rhumerus -49.7623 -15.2496 -69.2365
rradius 24.1564
rwrist -17.1014
rhand -11.5944 -28.3173
rfingers 7.12502
rthumb 14.4478 -57.7943
lclavicle -7.68738e-017 -3.57812e-015
lhumerus -47.4708 -5.65786 80.7926
lradius 33.0039
lwrist 39.1417
lhand -25.8191 3.77618
lfingers 7.12502
lthumb 0.720507 33.7547
rfemur -22.8328 20.6027 -9.76609
rtibia 24.4449
rfoot -14.8217 -24.281
rtoes -29.8174
lfemur -6.51363 -4.1763 1.55981
ltibia 9.54166e-015
lfoot -7.10846 14.6349
ltoes -22.2954
167
root 9.13764 14.4756 28.1593 197.385 -85.0031 -180.953
lowerback -15.1599 -1.08328 -3.31626
upperback -4.78028 -1.20069 0.217464
thorax 3.49195 -0.70013 1.88243
lowerneck -22.4071 5.71626 6.76295
upperneck 25.2887 4.80891 1.97679
head 12.2242 2.99467 0.428294
rclavicle 7.34261e-015 -1.27222e-014
rhumerus -49.5611 -14.992 -69.305
rradius 24.0404
rwrist -16.0712
rhand -11.6124 -27.6812
rfingers 7.12502
rthumb 14.4305 -57.1595
lclavicle 7.34261e-015 -1.27222e-014
lhumerus -47.4757 -7.12459 81.2615
lradius 33.1593
lwrist 39.9844
lhand -24.1225 4.49539
lfingers 7.12502
lthumb 2.35902 34.4621
rfemur -22.8596 20.4713 -9.64215
rtibia 24.5388
rfoot -14.7273 -23.9548
rtoes -30.0567
lfemur -6.26008 -4.05719 1.59221
ltibia -1.59028e-014
lfoot -7.15115 14.6374
ltoes -22.197
168
root 9.13696 14.4732 28.1542 196.99 -84.8205 -180.681
lowerback -15.1392 -1.06358 -3.40455
upperback -4.72963 -1.15763 0.191671
thorax 3.53259 -0.678882 1.91286
lowerneck -22.3251 5.72347 6.82966
upperneck 25.2508 4.78308 2.03371
head 12.1942 2.99618 0.431414
rclavicle 3.30596e-015 -1.39149e-015
rhumerus -49.3169 -14.6144 -69.4658
rradius 23.9224
rwrist -14.9588
rhand -11.6559 -27.0679
rfingers 7.12502
rthumb 14.3886 -56.5492
lclavicle 3.30596e-015 -1.39149e-015
lhumerus -47.5047 -8.60677 81.7385
lradius 33.2978
lwrist 40.6516
lhand -22.5382 5.20543
lfingers 7.12502
lthumb 3.88909 35.1497
rfemur -22.9395 20.3132 -9.58236
rtibia 24.6823
rfoot -14.6642 -23.6119
rtoes -30.2824
lfemur -6.02721 -3.92873 1.57039
ltibia 4.77083e-015
lfoot -7.19857 14.6396
ltoes -22.0435
